<svg xmlns="http://www.w3.org/2000/svg" width="126" height="201" viewBox="0 0 126 201">
    <defs></defs>
    <g transform="matrix(10,0,0,10,2,-45)" fill="#ffdabb">
        <path d="M7.36 6.66 c1.88 0 3.6 0.78 4.84 2 l-1.58 1.62 c-0.84 -0.84 -2 -1.36 -3.26 -1.36 c-2.54 0 -4.58 2.06 -4.58 4.6 c0 2.52 2.04 4.6 4.58 4.6 c1.26 0 2.42 -0.54 3.26 -1.36 l1.58 1.6 c-1.24 1.26 -2.96 2.02 -4.84 2.02 c-3.8 0 -6.86 -3.08 -6.86 -6.86 c0 -3.8 3.06 -6.86 6.86 -6.86 z M7.36 11.88 c0.9 0 1.62 0.74 1.62 1.64 s-0.72 1.62 -1.62 1.62 c-0.92 0 -1.64 -0.72 -1.64 -1.62 s0.72 -1.64 1.64 -1.64 z">

        </path>
    </g>
    <g transform="matrix(1.7,0,0,1.7,29,166)" fill="#ffdabb">
        <path d="M13.02 18.5 c-1.26 1.12 -2.9 1.7 -4.8 1.7 c-3.96 0 -7.32 -2.94 -7.32 -7.2 s3.36 -7.2 7.32 -7.2 c1.88 0 3.5 0.6 4.72 1.66 l-1.94 2.18 c-0.7 -0.48 -1.64 -0.82 -2.58 -0.82 c-2.46 0 -4.16 1.76 -4.16 4.18 s1.7 4.18 4.16 4.18 c0.98 0 1.98 -0.38 2.68 -0.94 z M22.22 9.6 l3.16 0 l0 10.4 l-3.16 0 l0 -1.04 c-0.14 0.36 -1.08 1.24 -2.68 1.24 c-2.38 0 -5.12 -1.7 -5.12 -5.42 c0 -3.58 2.74 -5.36 5.12 -5.36 c1.6 0 2.54 0.92 2.68 1.14 l0 -0.96 z M20 17.42 c1.3 0 2.36 -0.9 2.36 -2.64 c0 -1.68 -1.06 -2.58 -2.36 -2.58 c-1.36 0 -2.52 0.92 -2.52 2.58 c0 1.72 1.16 2.64 2.52 2.64 z M30.58 5.859999999999999 l0 14.14 l-3.16 0 l0 -14.14 l3.16 0 z M35.78 5.859999999999999 l0 2.66 l-3.16 0 l0 -2.66 l3.16 0 z M35.78 9.6 l0 10.4 l-3.16 0 l0 -10.4 l3.16 0 z M42.76 12.879999999999999 c-0.28 -0.72 -0.7 -0.96 -1.16 -0.96 c-0.42 0 -0.84 0.24 -0.84 0.64 c0 0.38 0.24 0.6 0.7 0.76 l1.32 0.46 c1.48 0.54 2.98 1.08 2.98 3.16 c0 2.1 -2.1 3.3 -4.26 3.3 c-1.94 0 -3.76 -1.14 -4.2 -2.96 l2.48 -0.78 c0.26 0.58 0.72 1.24 1.72 1.24 c0.68 0 1.12 -0.44 1.12 -0.84 c0 -0.2 -0.16 -0.46 -0.66 -0.66 l-1.22 -0.44 c-2.08 -0.76 -3.06 -1.82 -3.06 -3.3 c0 -1.94 1.8 -3.08 3.78 -3.08 c2.02 0 3.36 1.1 3.96 2.76 z">

        </path>
    </g>
</svg>